<svg width="38" height="38" viewBox="0 0 38 38" fill="none" xmlns="http://www.w3.org/2000/svg">
<path d="M12.75 14.75L18.75 18.75V8.75M0.75 18.75C0.75 21.1138 1.21558 23.4544 2.12017 25.6383C3.02475 27.8222 4.35062 29.8065 6.02208 31.4779C7.69353 33.1494 9.67784 34.4752 11.8617 35.3798C14.0456 36.2844 16.3862 36.75 18.75 36.75C21.1138 36.75 23.4544 36.2844 25.6383 35.3798C27.8222 34.4752 29.8065 33.1494 31.4779 31.4779C33.1494 29.8065 34.4752 27.8222 35.3798 25.6383C36.2844 23.4544 36.75 21.1138 36.75 18.75C36.75 16.3862 36.2844 14.0456 35.3798 11.8617C34.4752 9.67784 33.1494 7.69353 31.4779 6.02208C29.8065 4.35062 27.8222 3.02475 25.6383 2.12017C23.4544 1.21558 21.1138 0.75 18.75 0.75C16.3862 0.75 14.0456 1.21558 11.8617 2.12017C9.67784 3.02475 7.69353 4.35062 6.02208 6.02208C4.35062 7.69353 3.02475 9.67784 2.12017 11.8617C1.21558 14.0456 0.75 16.3862 0.75 18.75Z" stroke="#9BC53D" stroke-width="1.5" stroke-linecap="round" stroke-linejoin="round"/>
</svg>
