<svg width="38" height="38" viewBox="0 0 38 38" fill="none" xmlns="http://www.w3.org/2000/svg">
<path d="M24.75 8.75C25.8109 8.75 26.8283 9.17143 27.5784 9.92157C28.3286 10.6717 28.75 11.6891 28.75 12.75M24.75 0.75C27.9326 0.75 30.9848 2.01428 33.2353 4.26472C35.4857 6.51516 36.75 9.5674 36.75 12.75M4.75 2.75H12.75L16.75 12.75L11.75 15.75C13.8919 20.0931 17.4069 23.6081 21.75 25.75L24.75 20.75L34.75 24.75V32.75C34.75 33.8109 34.3286 34.8283 33.5784 35.5784C32.8283 36.3286 31.8109 36.75 30.75 36.75C22.9485 36.2759 15.5903 32.963 10.0637 27.4363C4.53701 21.9097 1.2241 14.5515 0.75 6.75C0.75 5.68913 1.17143 4.67172 1.92157 3.92157C2.67172 3.17143 3.68913 2.75 4.75 2.75Z" stroke="#9BC53D" stroke-width="1.5" stroke-linecap="round" stroke-linejoin="round"/>
</svg>
