<svg width="38" height="36" viewBox="0 0 38 36" fill="none" xmlns="http://www.w3.org/2000/svg">
<path d="M10.75 34.75H26.75M18.75 26.75V34.75M18.75 26.75C21.4022 26.75 23.9457 25.6964 25.8211 23.8211C27.6964 21.9457 28.75 19.4022 28.75 16.75V0.75H8.75V16.75C8.75 19.4022 9.80357 21.9457 11.6789 23.8211C13.5543 25.6964 16.0978 26.75 18.75 26.75ZM0.75 10.75C0.75 11.8109 1.17143 12.8283 1.92157 13.5784C2.67172 14.3286 3.68913 14.75 4.75 14.75C5.81087 14.75 6.82828 14.3286 7.57843 13.5784C8.32857 12.8283 8.75 11.8109 8.75 10.75C8.75 9.68913 8.32857 8.67172 7.57843 7.92157C6.82828 7.17143 5.81087 6.75 4.75 6.75C3.68913 6.75 2.67172 7.17143 1.92157 7.92157C1.17143 8.67172 0.75 9.68913 0.75 10.75ZM28.75 10.75C28.75 11.8109 29.1714 12.8283 29.9216 13.5784C30.6717 14.3286 31.6891 14.75 32.75 14.75C33.8109 14.75 34.8283 14.3286 35.5784 13.5784C36.3286 12.8283 36.75 11.8109 36.75 10.75C36.75 9.68913 36.3286 8.67172 35.5784 7.92157C34.8283 7.17143 33.8109 6.75 32.75 6.75C31.6891 6.75 30.6717 7.17143 29.9216 7.92157C29.1714 8.67172 28.75 9.68913 28.75 10.75Z" stroke="#9BC53D" stroke-width="1.5" stroke-linecap="round" stroke-linejoin="round"/>
</svg>
