<svg width="38" height="38" viewBox="0 0 38 38" fill="none" xmlns="http://www.w3.org/2000/svg">
<path d="M0.75 18.75C0.75 21.1138 1.21558 23.4544 2.12017 25.6383C3.02475 27.8222 4.35062 29.8065 6.02208 31.4779C7.69353 33.1494 9.67784 34.4752 11.8617 35.3798C14.0456 36.2844 16.3862 36.75 18.75 36.75C21.1138 36.75 23.4544 36.2844 25.6383 35.3798C27.8222 34.4752 29.8065 33.1494 31.4779 31.4779C33.1494 29.8065 34.4752 27.8222 35.3798 25.6383C36.2844 23.4544 36.75 21.1138 36.75 18.75C36.75 16.3862 36.2844 14.0456 35.3798 11.8617C34.4752 9.67784 33.1494 7.69353 31.4779 6.02208C29.8065 4.35062 27.8222 3.02475 25.6383 2.12017C23.4544 1.21558 21.1138 0.75 18.75 0.75C16.3862 0.75 14.0456 1.21558 11.8617 2.12017C9.67784 3.02475 7.69353 4.35062 6.02208 6.02208C4.35062 7.69353 3.02475 9.67784 2.12017 11.8617C1.21558 14.0456 0.75 16.3862 0.75 18.75Z" stroke="#9BC53D" stroke-width="1.5" stroke-linecap="round" stroke-linejoin="round"/>
<path d="M7.08594 32.448C7.58096 30.8005 8.59387 29.3564 9.97443 28.33C11.355 27.3035 13.0296 26.7495 14.7499 26.75H22.7499C24.4725 26.7494 26.1492 27.3048 27.5307 28.3336C28.9123 29.3623 29.9249 30.8096 30.4179 32.46M12.7499 14.75C12.7499 16.3413 13.3821 17.8674 14.5073 18.9926C15.6325 20.1179 17.1586 20.75 18.7499 20.75C20.3412 20.75 21.8674 20.1179 22.9926 18.9926C24.1178 17.8674 24.7499 16.3413 24.7499 14.75C24.7499 13.1587 24.1178 11.6326 22.9926 10.5074C21.8674 9.38214 20.3412 8.75 18.7499 8.75C17.1586 8.75 15.6325 9.38214 14.5073 10.5074C13.3821 11.6326 12.7499 13.1587 12.7499 14.75Z" stroke="#9BC53D" stroke-width="1.5" stroke-linecap="round" stroke-linejoin="round"/>
</svg>
