<svg width="25" height="25" viewBox="0 0 25 25" fill="none" xmlns="http://www.w3.org/2000/svg">
<path d="M7.08645 13.7531V13.7665M12.4198 19.0865V19.0998M12.4198 12.4198V12.4331M17.7531 15.0865V15.0998M11.0865 7.08645V7.09979M13.9505 1.05445L17.5065 2.52645C16.8017 3.45368 16.4198 4.58611 16.4192 5.75078C16.4185 6.91544 16.7991 8.0483 17.5028 8.97631C18.2066 9.90433 19.1947 10.5765 20.3163 10.8901C21.438 11.2037 22.6315 11.1416 23.7145 10.7131L23.7851 10.8891C24.1911 11.8692 24.1911 12.9704 23.7851 13.9505C23.1229 14.9993 22.6678 15.8225 22.4198 16.4198C22.1682 17.0278 21.8749 18.0127 21.5398 19.3745C21.1335 20.3544 20.3546 21.1328 19.3745 21.5385C17.9771 21.8887 16.9922 22.1825 16.4198 22.4198C15.7869 22.682 14.9638 23.1371 13.9505 23.7851C12.9704 24.1911 11.8692 24.1911 10.8891 23.7851C9.81979 23.1149 8.99668 22.6598 8.41979 22.4198C7.79134 22.1602 6.80645 21.8669 5.46512 21.5398C4.4852 21.1335 3.70679 20.3546 3.30112 19.3745C2.94823 17.9727 2.65445 16.9878 2.41979 16.4198C2.1549 15.7816 1.69979 14.9585 1.05445 13.9505C0.648515 12.9704 0.648515 11.8692 1.05445 10.8891C1.69357 9.89712 2.14868 9.07401 2.41979 8.41979C2.64823 7.86868 2.94157 6.88379 3.29979 5.46512C3.70606 4.4852 4.48495 3.70679 5.46512 3.30112C6.84023 2.95979 7.82512 2.66601 8.41979 2.41979C9.03045 2.16645 9.85357 1.71134 10.8891 1.05445C11.8692 0.648515 12.9704 0.648515 13.9505 1.05445Z" stroke="#9BC53D" stroke-width="1.5" stroke-linecap="round" stroke-linejoin="round"/>
</svg>
