<svg width="39" height="50" viewBox="0 0 39 50" fill="none" xmlns="http://www.w3.org/2000/svg">
<path d="M8.75 26.7499C8.75 27.9876 9.87381 29.1746 11.8742 30.0498C13.8746 30.9249 16.5877 31.4166 19.4167 31.4166C22.2456 31.4166 24.9588 30.9249 26.9591 30.0498C28.9595 29.1746 30.0833 27.9876 30.0833 26.7499C30.0833 25.5122 28.9595 24.3253 26.9591 23.4501C24.9588 22.5749 22.2456 22.0833 19.4167 22.0833C16.5877 22.0833 13.8746 22.5749 11.8742 23.4501C9.87381 24.3253 8.75 25.5122 8.75 26.7499Z" stroke="#9BC53D" stroke-width="1.5" stroke-linecap="round" stroke-linejoin="round"/>
<path d="M8.75 26.0833V36.0833C8.75 38.6593 13.5233 40.75 19.4167 40.75C25.31 40.75 30.0833 38.6593 30.0833 36.0833V26.0833M24.75 0.75V11.4167C24.75 12.1239 25.031 12.8022 25.531 13.3023C26.0311 13.8024 26.7094 14.0833 27.4167 14.0833H38.0833" stroke="#9BC53D" stroke-width="1.5" stroke-linecap="round" stroke-linejoin="round"/>
<path d="M32.75 48.75H6.08333C4.66885 48.75 3.31229 48.1881 2.3121 47.1879C1.3119 46.1877 0.75 44.8312 0.75 43.4167V6.08333C0.75 4.66885 1.3119 3.31229 2.3121 2.3121C3.31229 1.3119 4.66885 0.75 6.08333 0.75H24.75L38.0833 14.0833V43.4167C38.0833 44.8312 37.5214 46.1877 36.5212 47.1879C35.521 48.1881 34.1645 48.75 32.75 48.75Z" stroke="#9BC53D" stroke-width="1.5" stroke-linecap="round" stroke-linejoin="round"/>
</svg>
