<svg width="49" height="62" viewBox="0 0 49 62" fill="none" xmlns="http://www.w3.org/2000/svg">
<path d="M14.0833 7.41675H7.41667C5.64856 7.41675 3.95286 8.11913 2.70262 9.36937C1.45238 10.6196 0.75 12.3153 0.75 14.0834V54.0834C0.75 55.8515 1.45238 57.5472 2.70262 58.7975C3.95286 60.0477 5.64856 60.7501 7.41667 60.7501H40.75C42.5181 60.7501 44.2138 60.0477 45.464 58.7975C46.7143 57.5472 47.4167 55.8515 47.4167 54.0834V14.0834C47.4167 12.3153 46.7143 10.6196 45.464 9.36937C44.2138 8.11913 42.5181 7.41675 40.75 7.41675H34.0833" stroke="#14B8A6" stroke-width="1.5" stroke-linecap="round" stroke-linejoin="round"/>
<path d="M14.0835 37.4167H14.1168M14.0835 47.4167H14.1168M24.0835 44.0833L27.4168 47.4167L37.4168 37.4167M14.0835 7.41667C14.0835 5.64856 14.7859 3.95286 16.0361 2.70262C17.2864 1.45238 18.9821 0.75 20.7502 0.75H27.4168C29.1849 0.75 30.8806 1.45238 32.1309 2.70262C33.3811 3.95286 34.0835 5.64856 34.0835 7.41667C34.0835 9.18478 33.3811 10.8805 32.1309 12.1307C30.8806 13.381 29.1849 14.0833 27.4168 14.0833H20.7502C18.9821 14.0833 17.2864 13.381 16.0361 12.1307C14.7859 10.8805 14.0835 9.18478 14.0835 7.41667Z" stroke="#14B8A6" stroke-width="1.5" stroke-linecap="round" stroke-linejoin="round"/>
</svg>
