<svg width="38" height="30" viewBox="0 0 38 30" fill="none" xmlns="http://www.w3.org/2000/svg">
<path d="M0.75 4.75C0.75 3.68913 1.17143 2.67172 1.92157 1.92157C2.67172 1.17143 3.68913 0.75 4.75 0.75H32.75C33.8109 0.75 34.8283 1.17143 35.5784 1.92157C36.3286 2.67172 36.75 3.68913 36.75 4.75V24.75C36.75 25.8109 36.3286 26.8283 35.5784 27.5784C34.8283 28.3286 33.8109 28.75 32.75 28.75H4.75C3.68913 28.75 2.67172 28.3286 1.92157 27.5784C1.17143 26.8283 0.75 25.8109 0.75 24.75V4.75Z" stroke="#9BC53D" stroke-width="1.5" stroke-linecap="round" stroke-linejoin="round"/>
<path d="M0.75 4.75L18.75 16.75L36.75 4.75" stroke="#9BC53D" stroke-width="1.5" stroke-linecap="round" stroke-linejoin="round"/>
</svg>
