<svg width="17" height="14" viewBox="0 0 17 14" fill="none" xmlns="http://www.w3.org/2000/svg">
<path d="M1 3.5L7.575 7.88333C7.84888 8.06607 8.17075 8.16358 8.5 8.16358C8.82925 8.16358 9.15112 8.06607 9.425 7.88333L16 3.5M2.66667 12.6667H14.3333C14.7754 12.6667 15.1993 12.4911 15.5118 12.1785C15.8244 11.866 16 11.442 16 11V2.66667C16 2.22464 15.8244 1.80072 15.5118 1.48816C15.1993 1.17559 14.7754 1 14.3333 1H2.66667C2.22464 1 1.80072 1.17559 1.48816 1.48816C1.17559 1.80072 1 2.22464 1 2.66667V11C1 11.442 1.17559 11.866 1.48816 12.1785C1.80072 12.4911 2.22464 12.6667 2.66667 12.6667Z" stroke="#D1D5DB" stroke-width="2" stroke-linecap="round" stroke-linejoin="round"/>
</svg>
