<svg width="42" height="63" viewBox="0 0 42 63" fill="none" xmlns="http://www.w3.org/2000/svg">
<path d="M12.4621 9.08333C12.4621 11.2935 13.3401 13.4131 14.9029 14.9759C16.4657 16.5387 18.5853 17.4167 20.7954 17.4167C23.0056 17.4167 25.1252 16.5387 26.688 14.9759C28.2508 13.4131 29.1288 11.2935 29.1288 9.08333C29.1288 6.8732 28.2508 4.75358 26.688 3.19078C25.1252 1.62797 23.0056 0.75 20.7954 0.75C18.5853 0.75 16.4657 1.62797 14.9029 3.19078C13.3401 4.75358 12.4621 6.8732 12.4621 9.08333ZM20.7954 61.9767L37.7788 44.99C38.7448 44.0364 39.5126 42.9012 40.0381 41.6498C40.5636 40.3983 40.8364 39.0552 40.8408 37.6979C40.8452 36.3405 40.5811 34.9957 40.0637 33.7409C39.5463 32.486 38.7858 31.3459 37.826 30.3861C36.8662 29.4263 35.7261 28.6658 34.4712 28.1484C33.2164 27.631 31.8716 27.3669 30.5142 27.3713C29.1569 27.3757 27.8138 27.6485 26.5623 28.174C25.3109 28.6995 24.1757 29.4674 23.2221 30.4333L20.7954 32.8567L18.3688 30.4333C17.4152 29.4674 16.28 28.6995 15.0285 28.174C13.7771 27.6485 12.434 27.3757 11.0766 27.3713C9.71931 27.3669 8.3745 27.631 7.11964 28.1484C5.86478 28.6658 4.72464 29.4263 3.76485 30.3861C2.80506 31.3459 2.04458 32.486 1.52717 33.7409C1.00977 34.9957 0.745661 36.3405 0.750054 37.6979C0.754447 39.0552 1.02725 40.3983 1.55277 41.6498C2.07828 42.9012 2.84613 44.0364 3.81211 44.99L20.7954 61.9767Z" stroke="#9333EA" stroke-width="1.5" stroke-linecap="round" stroke-linejoin="round"/>
</svg>
