<svg width="53" height="47" viewBox="0 0 53 47" fill="none" xmlns="http://www.w3.org/2000/svg">
<path d="M24.75 38.0833H8.75C6.62827 38.0833 4.59344 37.2405 3.09315 35.7402C1.59286 34.2399 0.75 32.2051 0.75 30.0833V8.75C0.75 6.62827 1.59286 4.59344 3.09315 3.09315C4.59344 1.59285 6.62827 0.75 8.75 0.75H40.75C42.8717 0.75 44.9066 1.59285 46.4069 3.09315C47.9071 4.59344 48.75 6.62827 48.75 8.75V20.75M0.75 14.0833H48.75M35.4167 38.0833H51.4167M51.4167 38.0833L43.4167 30.0833M51.4167 38.0833L43.4167 46.0833M11.43 27.4167H11.4433M22.0833 27.4167H27.4167" stroke="#9BC53D" stroke-width="1.5" stroke-linecap="round" stroke-linejoin="round"/>
</svg>
