<svg width="39" height="50" viewBox="0 0 39 50" fill="none" xmlns="http://www.w3.org/2000/svg">
<path d="M0.75 8.75C0.75 6.62827 1.59285 4.59344 3.09315 3.09315C4.59344 1.59286 6.62827 0.75 8.75 0.75H30.0833C32.2051 0.75 34.2399 1.59286 35.7402 3.09315C37.2405 4.59344 38.0833 6.62827 38.0833 8.75V40.75C38.0833 42.8717 37.2405 44.9066 35.7402 46.4069C34.2399 47.9071 32.2051 48.75 30.0833 48.75H8.75C6.62827 48.75 4.59344 47.9071 3.09315 46.4069C1.59285 44.9066 0.75 42.8717 0.75 40.75V8.75Z" stroke="#9BC53D" stroke-width="1.5" stroke-linecap="round" stroke-linejoin="round"/>
<path d="M14.0837 8.75H24.7503M11.417 40.75H27.417M14.0837 27.4167C14.0837 28.8312 14.6456 30.1877 15.6458 31.1879C16.646 32.1881 18.0025 32.75 19.417 32.75C20.8315 32.75 22.188 32.1881 23.1882 31.1879C24.1884 30.1877 24.7503 28.8312 24.7503 27.4167C24.7503 26.0022 24.1884 24.6456 23.1882 23.6454C22.188 22.6452 20.8315 22.0833 19.417 22.0833C18.0025 22.0833 16.646 22.6452 15.6458 23.6454C14.6456 24.6456 14.0837 26.0022 14.0837 27.4167Z" stroke="#9BC53D" stroke-width="1.5" stroke-linecap="round" stroke-linejoin="round"/>
</svg>
