<svg width="42" height="22" viewBox="0 0 42 22" fill="none" xmlns="http://www.w3.org/2000/svg">
<path d="M0.75 10.75H10.75M10.75 10.75C10.75 13.4022 11.8036 15.9457 13.6789 17.8211C15.5543 19.6964 18.0978 20.75 20.75 20.75C23.4022 20.75 25.9457 19.6964 27.8211 17.8211C29.6964 15.9457 30.75 13.4022 30.75 10.75M10.75 10.75C10.75 8.09784 11.8036 5.5543 13.6789 3.67893C15.5543 1.80357 18.0978 0.75 20.75 0.75C23.4022 0.75 25.9457 1.80357 27.8211 3.67893C29.6964 5.5543 30.75 8.09784 30.75 10.75M30.75 10.75H40.75M13.75 3.75L27.75 17.75M27.75 3.75L13.75 17.75" stroke="#9BC53D" stroke-width="1.5" stroke-linecap="round" stroke-linejoin="round"/>
</svg>
