<svg width="69" height="35" viewBox="0 0 69 35" fill="none" xmlns="http://www.w3.org/2000/svg">
<path d="M0.75 17.4167H17.4167M17.4167 17.4167C17.4167 21.8369 19.1726 26.0762 22.2982 29.2018C25.4238 32.3274 29.6631 34.0833 34.0833 34.0833C38.5036 34.0833 42.7428 32.3274 45.8684 29.2018C48.9941 26.0762 50.75 21.8369 50.75 17.4167M17.4167 17.4167C17.4167 12.9964 19.1726 8.75716 22.2982 5.63155C25.4238 2.50595 29.6631 0.75 34.0833 0.75C38.5036 0.75 42.7428 2.50595 45.8684 5.63155C48.9941 8.75716 50.75 12.9964 50.75 17.4167M50.75 17.4167H67.4167M22.4167 5.75L45.75 29.0833M45.75 5.75L22.4167 29.0833" stroke="#1E40AF" stroke-width="1.5" stroke-linecap="round" stroke-linejoin="round"/>
</svg>
