<svg width="38" height="36" viewBox="0 0 38 36" fill="none" xmlns="http://www.w3.org/2000/svg">
<path d="M18.75 20.75C18.75 22.3413 19.3821 23.8674 20.5074 24.9926C21.6326 26.1179 23.1587 26.75 24.75 26.75C26.3413 26.75 27.8674 26.1179 28.9926 24.9926C30.1179 23.8674 30.75 22.3413 30.75 20.75C30.75 19.1587 30.1179 17.6326 28.9926 16.5074C27.8674 15.3821 26.3413 14.75 24.75 14.75C23.1587 14.75 21.6326 15.3821 20.5074 16.5074C19.3821 17.6326 18.75 19.1587 18.75 20.75Z" stroke="#9BC53D" stroke-width="1.5" stroke-linecap="round" stroke-linejoin="round"/>
<path d="M20.75 25.75V34.75L24.75 31.75L28.75 34.75V25.75" stroke="#9BC53D" stroke-width="1.5" stroke-linecap="round" stroke-linejoin="round"/>
<path d="M14.75 28.75H4.75C3.68913 28.75 2.67172 28.3286 1.92157 27.5784C1.17143 26.8283 0.75 25.8109 0.75 24.75V4.75C0.75 2.55 2.55 0.75 4.75 0.75H32.75C33.8109 0.75 34.8283 1.17143 35.5784 1.92157C36.3286 2.67172 36.75 3.68913 36.75 4.75V24.75C36.7493 25.4515 36.5641 26.1404 36.2131 26.7477C35.862 27.355 35.3575 27.8593 34.75 28.21M6.75 8.75H30.75M6.75 14.75H12.75M6.75 20.75H10.75" stroke="#9BC53D" stroke-width="1.5" stroke-linecap="round" stroke-linejoin="round"/>
</svg>
