<svg width="20" height="20" viewBox="0 0 20 20" fill="none" xmlns="http://www.w3.org/2000/svg">
<path d="M14.7143 13.8808L11.1785 17.4167C11.0239 17.5715 10.8402 17.6942 10.6381 17.778C10.436 17.8618 10.2194 17.9049 10.0006 17.9049C9.78179 17.9049 9.56515 17.8618 9.36303 17.778C9.16092 17.6942 8.9773 17.5715 8.82267 17.4167L5.286 13.8808C4.35368 12.9485 3.71878 11.7606 3.46157 10.4674C3.20437 9.17419 3.33641 7.83376 3.841 6.61561C4.3456 5.39745 5.20008 4.35628 6.2964 3.62376C7.39272 2.89123 8.68164 2.50024 10.0002 2.50024C11.3187 2.50024 12.6076 2.89123 13.7039 3.62376C14.8003 4.35628 15.6547 5.39745 16.1593 6.61561C16.6639 7.83376 16.796 9.17419 16.5388 10.4674C16.2816 11.7606 15.6466 12.9485 14.7143 13.8808Z" stroke="#D1D5DB" stroke-width="2" stroke-linecap="round" stroke-linejoin="round"/>
<path d="M12.5 9.16663C12.5 9.82967 12.2366 10.4656 11.7678 10.9344C11.2989 11.4032 10.663 11.6666 10 11.6666C9.33696 11.6666 8.70107 11.4032 8.23223 10.9344C7.76339 10.4656 7.5 9.82967 7.5 9.16663C7.5 8.50358 7.76339 7.8677 8.23223 7.39886C8.70107 6.93002 9.33696 6.66663 10 6.66663C10.663 6.66663 11.2989 6.93002 11.7678 7.39886C12.2366 7.8677 12.5 8.50358 12.5 9.16663Z" stroke="#D1D5DB" stroke-width="2" stroke-linecap="round" stroke-linejoin="round"/>
</svg>
