<svg width="40" height="38" viewBox="0 0 40 38" fill="none" xmlns="http://www.w3.org/2000/svg">
<path d="M18.75 29.75L12.75 26.75M12.75 26.75L0.75 32.75V6.75L12.75 0.75M12.75 26.75V0.75M12.75 0.75L24.75 6.75M24.75 6.75L36.75 0.75V14.75M24.75 6.75V16.75M32.75 28.75V28.77M36.992 32.992C37.8313 32.153 38.4029 31.0839 38.6346 29.9199C38.8662 28.756 38.7475 27.5495 38.2934 26.453C37.8394 25.3566 37.0703 24.4194 36.0836 23.76C35.0969 23.1007 33.9368 22.7487 32.75 22.7487C31.5632 22.7487 30.4031 23.1007 29.4164 23.76C28.4297 24.4194 27.6606 25.3566 27.2066 26.453C26.7525 27.5495 26.6338 28.756 26.8654 29.9199C27.0971 31.0839 27.6687 32.153 28.508 32.992C29.344 33.8293 30.758 35.082 32.75 36.75C34.8527 34.97 36.2667 33.7173 36.992 32.992Z" stroke="#9BC53D" stroke-width="1.5" stroke-linecap="round" stroke-linejoin="round"/>
</svg>
