<svg width="50" height="50" viewBox="0 0 50 50" fill="none" xmlns="http://www.w3.org/2000/svg">
<path d="M22.0835 24.7499C22.0835 25.4572 22.3644 26.1354 22.8645 26.6355C23.3646 27.1356 24.0429 27.4166 24.7502 27.4166C25.4574 27.4166 26.1357 27.1356 26.6358 26.6355C27.1359 26.1354 27.4168 25.4572 27.4168 24.7499C27.4168 24.0427 27.1359 23.3644 26.6358 22.8643C26.1357 22.3642 25.4574 22.0833 24.7502 22.0833C24.0429 22.0833 23.3646 22.3642 22.8645 22.8643C22.3644 23.3644 22.0835 24.0427 22.0835 24.7499Z" stroke="#9BC53D" stroke-width="1.5" stroke-linecap="round" stroke-linejoin="round"/>
<path d="M11.4165 24.7501C11.4165 28.2863 12.8213 31.6777 15.3217 34.1782C17.8222 36.6787 21.2136 38.0834 24.7498 38.0834C28.2861 38.0834 31.6774 36.6787 34.1779 34.1782C36.6784 31.6777 38.0832 28.2863 38.0832 24.7501C38.0832 21.2139 36.6784 17.8225 34.1779 15.322C31.6774 12.8215 28.2861 11.4167 24.7498 11.4167C21.2136 11.4167 17.8222 12.8215 15.3217 15.322C12.8213 17.8225 11.4165 21.2139 11.4165 24.7501Z" stroke="#9BC53D" stroke-width="1.5" stroke-linecap="round" stroke-linejoin="round"/>
<path d="M0.75 24.75C0.75 27.9017 1.37078 31.0226 2.57689 33.9344C3.783 36.8462 5.55083 39.492 7.77944 41.7206C10.008 43.9492 12.6538 45.717 15.5656 46.9231C18.4774 48.1292 21.5983 48.75 24.75 48.75C27.9017 48.75 31.0226 48.1292 33.9344 46.9231C36.8462 45.717 39.492 43.9492 41.7206 41.7206C43.9492 39.492 45.717 36.8462 46.9231 33.9344C48.1292 31.0226 48.75 27.9017 48.75 24.75C48.75 21.5983 48.1292 18.4774 46.9231 15.5656C45.717 12.6538 43.9492 10.008 41.7206 7.77944C39.492 5.55083 36.8462 3.783 33.9344 2.57689C31.0226 1.37078 27.9017 0.75 24.75 0.75C21.5983 0.75 18.4774 1.37078 15.5656 2.57689C12.6538 3.783 10.008 5.55083 7.77944 7.77944C5.55083 10.008 3.783 12.6538 2.57689 15.5656C1.37078 18.4774 0.75 21.5983 0.75 24.75Z" stroke="#9BC53D" stroke-width="1.5" stroke-linecap="round" stroke-linejoin="round"/>
</svg>
