<svg width="17" height="17" viewBox="0 0 17 17" fill="none" xmlns="http://www.w3.org/2000/svg">
<path d="M1 2.66667C1 2.22464 1.17559 1.80072 1.48816 1.48816C1.80072 1.17559 2.22464 1 2.66667 1H5.4C5.57483 1.00013 5.74519 1.05525 5.88696 1.15754C6.02874 1.25984 6.13475 1.40413 6.19 1.57L7.43833 5.31417C7.50158 5.50445 7.4941 5.71116 7.41726 5.89637C7.34042 6.08158 7.19938 6.23288 7.02 6.3225L5.13917 7.26417C6.0611 9.30461 7.69538 10.9389 9.73583 11.8608L10.6775 9.98C10.7671 9.80062 10.9184 9.65958 11.1036 9.58274C11.2888 9.5059 11.4956 9.49841 11.6858 9.56167L15.43 10.81C15.596 10.8653 15.7404 10.9714 15.8427 11.1134C15.945 11.2553 16 11.4259 16 11.6008V14.3333C16 14.7754 15.8244 15.1993 15.5118 15.5118C15.1993 15.8244 14.7754 16 14.3333 16H13.5C6.59667 16 1 10.4033 1 3.5V2.66667Z" stroke="#D1D5DB" stroke-width="2" stroke-linecap="round" stroke-linejoin="round"/>
</svg>
