<svg width="50" height="50" viewBox="0 0 50 50" fill="none" xmlns="http://www.w3.org/2000/svg">
<path d="M24.7157 0.75C30.9446 6.26087 39.0743 9.13018 47.3824 8.75C48.592 12.8647 48.9621 17.1806 48.4707 21.4412C47.9793 25.7017 46.6366 29.8201 44.5221 33.5514C42.4077 37.2828 39.5647 40.551 36.1623 43.1619C32.7598 45.7729 28.8671 47.6732 24.7157 48.75C20.5643 47.6732 16.6717 45.7729 13.2692 43.1619C9.86666 40.551 7.02373 37.2828 4.90929 33.5514C2.79485 29.8201 1.45206 25.7017 0.960705 21.4412C0.469349 17.1806 0.839458 12.8647 2.04904 8.75C10.3571 9.13018 18.4868 6.26087 24.7157 0.75Z" stroke="#1E40AF" stroke-width="1.5" stroke-linecap="round" stroke-linejoin="round"/>
<path d="M24.7155 24.75C24.0083 24.75 23.33 24.469 22.8299 23.969C22.3298 23.4689 22.0488 22.7906 22.0488 22.0833C22.0488 21.3761 22.3298 20.6978 22.8299 20.1977C23.33 19.6976 24.0083 19.4167 24.7155 19.4167C25.4227 19.4167 26.101 19.6976 26.6011 20.1977C27.1012 20.6978 27.3822 21.3761 27.3822 22.0833C27.3822 22.7906 27.1012 23.4689 26.6011 23.969C26.101 24.469 25.4227 24.75 24.7155 24.75ZM24.7155 24.75V31.4167" stroke="#1E40AF" stroke-width="1.5" stroke-linecap="round" stroke-linejoin="round"/>
</svg>
