<svg width="26" height="26" viewBox="0 0 26 26" fill="none" xmlns="http://www.w3.org/2000/svg">
<path d="M0.75 12.75C0.75 14.3259 1.06039 15.8863 1.66345 17.3422C2.2665 18.7981 3.15042 20.121 4.26472 21.2353C5.37902 22.3496 6.70189 23.2335 8.1578 23.8366C9.61371 24.4396 11.1741 24.75 12.75 24.75C14.3259 24.75 15.8863 24.4396 17.3422 23.8366C18.7981 23.2335 20.121 22.3496 21.2353 21.2353C22.3496 20.121 23.2335 18.7981 23.8366 17.3422C24.4396 15.8863 24.75 14.3259 24.75 12.75C24.75 11.1741 24.4396 9.61371 23.8366 8.1578C23.2335 6.70189 22.3496 5.37902 21.2353 4.26472C20.121 3.15042 18.7981 2.2665 17.3422 1.66345C15.8863 1.06039 14.3259 0.75 12.75 0.75C11.1741 0.75 9.61371 1.06039 8.1578 1.66345C6.70189 2.2665 5.37902 3.15042 4.26472 4.26472C3.15042 5.37902 2.2665 6.70189 1.66345 8.1578C1.06039 9.61371 0.75 11.1741 0.75 12.75Z" stroke="#9BC53D" stroke-width="1.5" stroke-linecap="round" stroke-linejoin="round"/>
<path d="M4.97363 21.882C5.30364 20.7837 5.97892 19.8209 6.89929 19.1367C7.81966 18.4524 8.9361 18.083 10.083 18.0834H15.4163C16.5646 18.083 17.6824 18.4532 18.6035 19.1391C19.5245 19.8249 20.1996 20.7897 20.5283 21.89M8.74963 10.0834C8.74963 11.1442 9.17106 12.1617 9.9212 12.9118C10.6714 13.6619 11.6888 14.0834 12.7496 14.0834C13.8105 14.0834 14.8279 13.6619 15.5781 12.9118C16.3282 12.1617 16.7496 11.1442 16.7496 10.0834C16.7496 9.02251 16.3282 8.00509 15.5781 7.25495C14.8279 6.5048 13.8105 6.08337 12.7496 6.08337C11.6888 6.08337 10.6714 6.5048 9.9212 7.25495C9.17106 8.00509 8.74963 9.02251 8.74963 10.0834Z" stroke="#9BC53D" stroke-width="1.5" stroke-linecap="round" stroke-linejoin="round"/>
</svg>
