<svg width="26" height="26" viewBox="0 0 26 26" fill="none" xmlns="http://www.w3.org/2000/svg">
<path d="M12.7329 0.75C15.8473 3.50543 19.9121 4.94009 24.0662 4.75C24.671 6.80735 24.856 8.96529 24.6104 11.0956C24.3647 13.2259 23.6933 15.285 22.6361 17.1507C21.5788 19.0164 20.1574 20.6505 18.4561 21.956C16.7549 23.2614 14.8086 24.2116 12.7329 24.75C10.6571 24.2116 8.71083 23.2614 7.00958 21.956C5.30833 20.6505 3.88687 19.0164 2.82965 17.1507C1.77243 15.285 1.10103 13.2259 0.855352 11.0956C0.609675 8.96529 0.794729 6.80735 1.39952 4.75C5.55356 4.94009 9.61841 3.50543 12.7329 0.75Z" stroke="#9BC53D" stroke-width="1.5" stroke-linecap="round" stroke-linejoin="round"/>
<path d="M12.7327 12.75C12.3791 12.75 12.04 12.6096 11.7899 12.3595C11.5399 12.1095 11.3994 11.7703 11.3994 11.4167C11.3994 11.0631 11.5399 10.7239 11.7899 10.4739C12.04 10.2239 12.3791 10.0834 12.7327 10.0834C13.0864 10.0834 13.4255 10.2239 13.6756 10.4739C13.9256 10.7239 14.0661 11.0631 14.0661 11.4167C14.0661 11.7703 13.9256 12.1095 13.6756 12.3595C13.4255 12.6096 13.0864 12.75 12.7327 12.75ZM12.7327 12.75V16.0834" stroke="#9BC53D" stroke-width="1.5" stroke-linecap="round" stroke-linejoin="round"/>
</svg>
