<svg width="39" height="50" viewBox="0 0 39 50" fill="none" xmlns="http://www.w3.org/2000/svg">
<path d="M3.41667 0.75H26.0833L38.0833 12.75V46.0833C38.0833 46.7906 37.8024 47.4689 37.3023 47.969C36.8022 48.4691 36.1239 48.75 35.4167 48.75H3.41667C2.70942 48.75 2.03115 48.4691 1.53105 47.969C1.03095 47.4689 0.75 46.7906 0.75 46.0833V3.41667C0.75 2.70942 1.03095 2.03115 1.53105 1.53105C2.03115 1.03095 2.70942 0.75 3.41667 0.75Z" stroke="#9BC53D" stroke-width="1.5" stroke-linecap="round" stroke-linejoin="round"/>
<path d="M11.417 22.0833H19.417V38.0833M27.417 38.0833V38.11M27.417 30.0833V30.11M27.417 22.0833V22.11M11.417 30.0833V30.11M11.417 38.0833V38.11" stroke="#9BC53D" stroke-width="1.5" stroke-linecap="round" stroke-linejoin="round"/>
</svg>
