<svg width="75" height="17" viewBox="0 0 75 17" fill="none" xmlns="http://www.w3.org/2000/svg">
<path d="M17.1866 -5.48439e-05L11.5276 16.418H5.68232L5.04042e-05 -5.48439e-05H4.89053L8.6166 11.8535L12.3194 -5.48439e-05H17.1866ZM23.1732 3.65616V6.33427H28.413V9.80418H23.1732V12.7618H29.1117V16.418H18.6088V-5.48439e-05H29.1117V3.65616H23.1732ZM39.6809 16.418L36.4206 10.3631H35.9316V16.418H31.3671V-5.48439e-05H38.5631C39.8828 -5.48439e-05 41.0006 0.232825 41.9166 0.698585C42.8326 1.14882 43.5235 1.77759 43.9892 2.58491C44.455 3.3767 44.6879 4.26941 44.6879 5.26303C44.6879 6.38085 44.3773 7.36671 43.7563 8.2206C43.1508 9.05897 42.2581 9.65669 41.0782 10.0138L44.781 16.418H39.6809ZM35.9316 7.24251H38.1905C38.8115 7.24251 39.2773 7.09502 39.5878 6.80003C39.8983 6.50505 40.0535 6.07811 40.0535 5.5192C40.0535 4.99133 39.8905 4.57991 39.5645 4.28493C39.254 3.97443 38.796 3.81917 38.1905 3.81917H35.9316V7.24251ZM62.7391 -5.48439e-05L57.0801 16.418H51.2349L45.5526 -5.48439e-05H50.4431L54.1692 11.8535L57.8719 -5.48439e-05H62.7391ZM68.7258 3.65616V6.33427H73.9656V9.80418H68.7258V12.7618H74.6642V16.418H64.1613V-5.48439e-05H74.6642V3.65616H68.7258Z" fill="#1E40AF"/>
</svg>
