<svg width="50" height="45" viewBox="0 0 50 45" fill="none" xmlns="http://www.w3.org/2000/svg">
<path d="M14.0833 0.75H8.75L0.75 27.4167M0.75 27.4167V34.0833C0.75 36.5587 1.73333 38.9327 3.48367 40.683C5.23401 42.4333 7.60798 43.4167 10.0833 43.4167C12.5587 43.4167 14.9327 42.4333 16.683 40.683C18.4333 38.9327 19.4167 36.5587 19.4167 34.0833V27.4167H0.75ZM35.4167 0.75H40.75L48.75 27.4167M48.75 27.4167H30.0833V34.0833C30.0833 36.5587 31.0667 38.9327 32.817 40.683C34.5673 42.4333 36.9413 43.4167 39.4167 43.4167C41.892 43.4167 44.266 42.4333 46.0163 40.683C47.7667 38.9327 48.75 36.5587 48.75 34.0833V27.4167ZM19.4167 32.75H30.0833" stroke="white" stroke-width="1.5" stroke-linecap="round" stroke-linejoin="round"/>
</svg>
